<?xml version="1.0" encoding="UTF-8" standalone="no"?>
<!-- Created with Inkscape (http://www.inkscape.org/) -->

<svg
   xmlns:dc="http://purl.org/dc/elements/1.1/"
   xmlns:cc="http://creativecommons.org/ns#"
   xmlns:rdf="http://www.w3.org/1999/02/22-rdf-syntax-ns#"
   xmlns:svg="http://www.w3.org/2000/svg"
   xmlns="http://www.w3.org/2000/svg"
   xmlns:sodipodi="http://sodipodi.sourceforge.net/DTD/sodipodi-0.dtd"
   xmlns:inkscape="http://www.inkscape.org/namespaces/inkscape"
   width="687.70398"
   height="688.13196"
   viewBox="0 0 181.95501 182.06825"
   version="1.1"
   id="svg8"
   inkscape:version="0.92.4 (5da689c313, 2019-01-14)"
   sodipodi:docname="intersection.svg">
  <defs
     id="defs2" />
  <sodipodi:namedview
     id="base"
     pagecolor="#ffffff"
     bordercolor="#666666"
     borderopacity="1.0"
     inkscape:pageopacity="0.0"
     inkscape:pageshadow="2"
     inkscape:zoom="0.35"
     inkscape:cx="299.36517"
     inkscape:cy="1061.5898"
     inkscape:document-units="mm"
     inkscape:current-layer="layer1"
     showgrid="false"
     units="px"
     fit-margin-top="0"
     fit-margin-left="0"
     fit-margin-right="0"
     fit-margin-bottom="0"
     inkscape:window-width="2490"
     inkscape:window-height="1403"
     inkscape:window-x="1990"
     inkscape:window-y="0"
     inkscape:window-maximized="1" />
  <metadata
     id="metadata5">
    <rdf:RDF>
      <cc:Work
         rdf:about="">
        <dc:format>image/svg+xml</dc:format>
        <dc:type
           rdf:resource="http://purl.org/dc/dcmitype/StillImage" />
        <dc:title></dc:title>
      </cc:Work>
    </rdf:RDF>
  </metadata>
  <g
     inkscape:label="Layer 1"
     inkscape:groupmode="layer"
     id="layer1"
     transform="translate(-14.508903,-15.601389)">
    <path
       style="fill:#000000;stroke-width:0.18348624"
       d="m 126.81352,197.49216 c -10.64711,-0.61149 -21.39449,-4.03188 -30.602065,-9.73919 -4.358776,-2.70178 -7.97746,-5.59775 -11.861157,-9.49226 -6.877068,-6.89622 -11.80169,-14.57948 -15.181079,-23.6851 -1.376224,-3.70818 -1.346797,-3.38216 -0.291408,-3.22825 3.71914,0.54238 5.727523,0.69604 10.282771,0.7867 l 5.169822,0.1029 0.853556,1.76565 c 6.800479,14.06738 20.02705,24.37964 35.32056,27.53812 4.73823,0.97855 11.70502,1.30905 16.05505,0.76164 9.68201,-1.2184 18.04845,-4.68098 25.77982,-10.66939 2.10164,-1.62785 6.25057,-5.73521 7.96284,-7.88306 6.73326,-8.44615 10.54116,-18.43463 11.11015,-29.14297 0.58426,-10.99567 -2.33683,-21.6883 -8.40707,-30.77399 -4.95444,-7.415602 -11.3056,-13.071902 -19.17172,-17.074202 l -2.77861,-1.41376 0.0636,-2.9535 c 0.071,-3.29931 -0.21001,-7.90897 -0.68067,-11.16451 -0.17143,-1.18578 -0.30472,-2.15596 -0.29619,-2.15596 0.009,0 0.83676,0.27751 1.84053,0.6167 19.49877,6.58882 34.9575,22.29844 41.35622,42.027412 2.15154,6.63382 3.12545,12.9282 3.12545,20.19992 0,5.88781 -0.49554,10.09822 -1.83582,15.59838 -6.40781,26.29594 -28.31329,45.94442 -55.22447,49.53451 -2.24194,0.29911 -7.55197,0.66057 -9.08257,0.6183 -0.50459,-0.0139 -2.08297,-0.0923 -3.50752,-0.17409 z M 75.69783,146.85422 c -3.808358,-0.25794 -8.898431,-1.06486 -9.135363,-1.44823 -0.187967,-0.30414 -0.681445,-3.17948 -1.039995,-6.05974 -0.440398,-3.53775 -0.440969,-11.28231 -0.0011,-14.86238 1.577251,-12.83704 6.220989,-23.87142 14.319503,-34.025782 2.068769,-2.59394 7.109523,-7.58589 9.897187,-9.80136 11.325838,-9.00113 24.233058,-13.7755 39.023338,-14.43469 4.07126,-0.18146 10.99545,0.38544 14.87794,1.21809 l 0.86801,0.18615 0.29156,1.59394 c 1.23919,6.77463 1.4342,13.94729 0.56108,20.6378 -2.81434,21.565532 -16.24079,40.397642 -35.7729,50.175532 -10.591711,5.30227 -22.102483,7.61896 -33.88926,6.82067 z M 59.214644,143.57423 C 46.18278,139.18855 34.359468,130.33755 26.46012,119.054 21.295478,111.67675 17.707197,103.44091 15.933562,94.893398 c -1.918841,-9.24729 -1.899259,-18.50507 0.0582,-27.51377 2.672284,-12.29853 8.733753,-23.42161 17.632027,-32.35561 15.693565,-15.75658 37.771484,-22.46851 59.633027,-18.12908 20.036674,3.97719 37.375264,17.51594 46.249164,36.11343 1.81261,3.79878 3.72567,8.90929 3.33283,8.90325 -0.12331,-0.002 -1.46273,-0.17162 -2.97649,-0.37716 -1.94463,-0.26404 -4.27683,-0.40532 -7.94748,-0.48143 l -5.19519,-0.10773 -1.09604,-2.18647 c -5.06616,-10.10635 -12.99864,-18.00184 -23.009,-22.90171 -5.467959,-2.67647 -10.231682,-4.11414 -16.164274,-4.87834 -2.863604,-0.36886 -9.035986,-0.41857 -11.817373,-0.0951 -7.257284,0.84386 -15.063251,3.53604 -21.100917,7.27744 -6.290905,3.89833 -12.508674,10.11572 -16.415551,16.41455 -8.127312,13.10318 -9.825655,29.49705 -4.560937,44.02608 4.378748,12.084022 13.376089,22.196542 24.908598,27.995892 l 2.489908,1.2521 1.54e-4,4.05103 c 1.58e-4,4.17381 0.158642,6.62541 0.651714,10.08135 0.15644,1.0965 0.257086,2.02098 0.223657,2.0544 -0.03343,0.0334 -0.760153,-0.17458 -1.614942,-0.46224 z"
       id="path841"
       inkscape:connector-curvature="0" />
  </g>
</svg>
