<?xml version="1.0" encoding="UTF-8" standalone="no"?>
<svg
   xmlns:dc="http://purl.org/dc/elements/1.1/"
   xmlns:cc="http://creativecommons.org/ns#"
   xmlns:rdf="http://www.w3.org/1999/02/22-rdf-syntax-ns#"
   xmlns:svg="http://www.w3.org/2000/svg"
   xmlns="http://www.w3.org/2000/svg"
   xmlns:sodipodi="http://sodipodi.sourceforge.net/DTD/sodipodi-0.dtd"
   xmlns:inkscape="http://www.inkscape.org/namespaces/inkscape"
   sodipodi:docname="intersection.svg"
   inkscape:version="1.0beta2 (2b71d25, 2019-12-03)"
   id="svg2"
   height="500"
   width="500"
   version="1.1">
  <sodipodi:namedview
     inkscape:document-rotation="0"
     inkscape:current-layer="svg2"
     inkscape:window-maximized="0"
     inkscape:window-y="23"
     inkscape:window-x="0"
     inkscape:cy="230.67209"
     inkscape:cx="159.65288"
     inkscape:zoom="1.4142136"
     showgrid="false"
     id="namedview3057"
     inkscape:window-height="1026"
     inkscape:window-width="1792"
     inkscape:pageshadow="2"
     inkscape:pageopacity="0"
     guidetolerance="10"
     gridtolerance="10"
     objecttolerance="10"
     borderopacity="1"
     bordercolor="#666666"
     pagecolor="#ffffff" />
  <defs
     id="defs4">
    <marker
       style="overflow:visible"
       id="Arrow1Mend"
       orient="auto"
       refY="0"
       refX="0">
      <path
         style="fill-rule:evenodd;stroke:#000000;stroke-width:1pt"
         id="path4046"
         transform="matrix(-0.4,0,0,-0.4,-4,0)"
         d="M 0,0 5,-5 -12.5,0 5,5 0,0 z" />
    </marker>
    <marker
       style="overflow:visible"
       id="Arrow2Lend"
       orient="auto"
       refY="0"
       refX="0">
      <path
         style="fill-rule:evenodd;stroke-width:0.625;stroke-linejoin:round"
         id="path3813"
         transform="matrix(-1.1,0,0,-1.1,-1.1,0)"
         d="M 8.7185878,4.0337352 -2.2072895,0.01601326 8.7185884,-4.0017078 c -1.7454984,2.3720609 -1.7354408,5.6174519 -6e-7,8.035443 z" />
    </marker>
    <marker
       style="overflow:visible"
       id="Arrow2Lstart"
       orient="auto"
       refY="0"
       refX="0">
      <path
         style="fill-rule:evenodd;stroke-width:0.625;stroke-linejoin:round"
         id="path3810"
         transform="matrix(1.1,0,0,1.1,1.1,0)"
         d="M 8.7185878,4.0337352 -2.2072895,0.01601326 8.7185884,-4.0017078 c -1.7454984,2.3720609 -1.7354408,5.6174519 -6e-7,8.035443 z" />
    </marker>
  </defs>
  <metadata
     id="metadata7">
    <rdf:RDF>
      <cc:Work
         rdf:about="">
        <dc:format>image/svg+xml</dc:format>
        <dc:type
           rdf:resource="http://purl.org/dc/dcmitype/StillImage" />
        <dc:title />
      </cc:Work>
    </rdf:RDF>
  </metadata>
  <g
     id="g144">
    <ellipse
       style="fill:none;stroke:#000000;stroke-width:68.6862;stroke-miterlimit:4;stroke-dasharray:none;stroke-opacity:1"
       id="path3820"
       transform="scale(1,-1)"
       cx="177.37257"
       cy="-259.18109"
       rx="115.65694"
       ry="115.65691" />
    <ellipse
       ry="115.65695"
       rx="115.65694"
       cy="-260"
       cx="330.94928"
       transform="scale(1,-1)"
       id="path3820-2"
       style="fill:none;stroke:#000000;stroke-width:68.6861;stroke-miterlimit:4;stroke-dasharray:none;stroke-opacity:1" />
  </g>
  <path
     inkscape:connector-curvature="0"
     id="path146"
     d="m 252.19034,278.34346 c -2.17477,-9.08436 -2.63166,-22.09299 -1.08819,-30.98365 1.34221,-7.73132 2.51534,-12.02081 3.28758,-12.02081 0.8083,0 2.66847,8.88157 3.54211,16.91221 0.56329,5.17789 0.55902,9.07325 -0.0158,14.36477 -0.71108,6.54643 -2.95235,17.11984 -3.81092,17.9784 -0.18565,0.18566 -1.04732,-2.62726 -1.91482,-6.25092 z"
     style="fill:#000000;stroke:#000000;stroke-width:0.707107;stroke-opacity:1" />
</svg>
