<?xml version="1.0" encoding="UTF-8" standalone="no"?>
<!-- Created with Inkscape (http://www.inkscape.org/) -->

<svg
   xmlns:dc="http://purl.org/dc/elements/1.1/"
   xmlns:cc="http://creativecommons.org/ns#"
   xmlns:rdf="http://www.w3.org/1999/02/22-rdf-syntax-ns#"
   xmlns:svg="http://www.w3.org/2000/svg"
   xmlns="http://www.w3.org/2000/svg"
   xmlns:sodipodi="http://sodipodi.sourceforge.net/DTD/sodipodi-0.dtd"
   xmlns:inkscape="http://www.inkscape.org/namespaces/inkscape"
   width="687.70398"
   height="688.13196"
   viewBox="0 0 181.95501 182.06825"
   version="1.1"
   id="svg8"
   inkscape:version="0.92.4 (5da689c313, 2019-01-14)"
   sodipodi:docname="union.svg">
  <defs
     id="defs2" />
  <sodipodi:namedview
     id="base"
     pagecolor="#ffffff"
     bordercolor="#666666"
     borderopacity="1.0"
     inkscape:pageopacity="0.0"
     inkscape:pageshadow="2"
     inkscape:zoom="0.49497475"
     inkscape:cx="-181.54104"
     inkscape:cy="222.62214"
     inkscape:document-units="mm"
     inkscape:current-layer="layer1"
     showgrid="false"
     units="px"
     fit-margin-top="0"
     fit-margin-left="0"
     fit-margin-right="0"
     fit-margin-bottom="0"
     inkscape:window-width="2490"
     inkscape:window-height="1403"
     inkscape:window-x="1990"
     inkscape:window-y="0"
     inkscape:window-maximized="1" />
  <metadata
     id="metadata5">
    <rdf:RDF>
      <cc:Work
         rdf:about="">
        <dc:format>image/svg+xml</dc:format>
        <dc:type
           rdf:resource="http://purl.org/dc/dcmitype/StillImage" />
        <dc:title></dc:title>
      </cc:Work>
    </rdf:RDF>
  </metadata>
  <g
     inkscape:label="Layer 1"
     inkscape:groupmode="layer"
     id="layer1"
     transform="translate(-14.508903,-15.601389)">
    <path
       style="fill:#000000;stroke-width:0.21919149"
       d="m 126.29887,190.74264 c -8.76777,-0.62798 -16.67104,-2.81547 -24.11106,-6.67352 -11.985973,-6.21536 -21.733982,-16.52585 -27.25484,-28.82748 -0.967818,-2.1565 -2.626891,-6.6571 -2.500591,-6.7834 0.03439,-0.0344 1.09651,0.0971 2.360263,0.29218 3.010891,0.46479 13.809648,0.5221 16.873971,0.0896 11.813687,-1.6676 21.647957,-5.69607 31.089217,-12.73527 3.28132,-2.44648 9.4665,-8.50484 11.87328,-11.62984 7.00667,-9.09755 11.46476,-19.48691 13.16739,-30.685954 0.84659,-5.568465 0.7639,-15.577757 -0.16546,-20.026437 -0.12108,-0.579581 -0.0913,-0.615106 0.39238,-0.468495 6.29879,1.909169 14.46249,6.367955 19.96785,10.905881 2.72105,2.242897 7.20527,6.814241 9.19045,9.369005 11.45191,14.73773 15.49267,33.69597 11.01934,51.69994 -1.99237,8.01875 -6.15838,16.40806 -11.44348,23.04436 -2.12607,2.66963 -6.58108,7.12463 -9.25071,9.25071 -6.79208,5.40916 -15.36273,9.61739 -23.56308,11.56958 -5.82864,1.38757 -12.38765,1.98575 -17.64492,1.60919 z M 77.348954,144.19575 c -1.790773,-0.20354 -5.483597,-0.8044 -6.090637,-0.99099 -0.706093,-0.21705 -1.506484,-6.83861 -1.509057,-12.48429 -0.0036,-7.83476 1.325004,-15.00063 4.070233,-21.95346 7.92596,-20.074012 25.762945,-34.307071 47.109187,-37.590869 3.64604,-0.560889 10.67356,-0.770179 14.24745,-0.424311 3.50802,0.339493 6.734,0.885646 7.05769,1.194857 0.14451,0.138051 0.48502,1.681227 0.75668,3.429279 0.64407,4.144462 0.70945,13.366723 0.12167,17.163832 -1.73724,11.222762 -5.95436,20.961662 -12.78439,29.523952 -1.9097,2.39406 -6.67626,7.16061 -9.07031,9.07032 -8.47676,6.76179 -18.2233,11.02238 -29.152474,12.74366 -2.681955,0.4224 -12.059669,0.6245 -14.756042,0.31802 z M 63.171718,140.94218 C 54.834644,137.94947 47.245235,133.11635 40.92378,126.77415 19.262125,105.04143 17.395313,70.69047 36.570057,46.661881 c 2.011864,-2.52114 6.738406,-7.235077 9.292618,-9.267835 6.570779,-5.229322 14.618495,-9.242323 22.776856,-11.357698 15.408194,-3.995178 32.257769,-1.504395 45.917139,6.787687 3.8599,2.343202 7.28953,5.014426 10.72167,8.350753 5.14783,5.004124 8.72491,9.855071 11.88529,16.11788 1.52778,3.027537 3.97763,9.012953 3.77285,9.217737 -0.0378,0.03784 -1.05349,-0.07844 -2.257,-0.258398 -3.13552,-0.468838 -11.01456,-0.637749 -14.5924,-0.312833 -21.38942,1.942447 -40.03806,13.951626 -50.813999,32.722743 -4.281991,7.459003 -6.999486,15.893863 -8.033793,24.936173 -0.545347,4.76762 -0.300547,13.90268 0.471375,17.59012 0.0694,0.33153 0.04437,0.59768 -0.05562,0.59146 -0.1,-0.006 -1.21749,-0.3831 -2.483321,-0.83749 z"
       id="path873"
       inkscape:connector-curvature="0" />
  </g>
</svg>
