<?xml version="1.0" encoding="UTF-8" standalone="no"?>
<svg
   xmlns:dc="http://purl.org/dc/elements/1.1/"
   xmlns:cc="http://creativecommons.org/ns#"
   xmlns:rdf="http://www.w3.org/1999/02/22-rdf-syntax-ns#"
   xmlns:svg="http://www.w3.org/2000/svg"
   xmlns="http://www.w3.org/2000/svg"
   xmlns:sodipodi="http://sodipodi.sourceforge.net/DTD/sodipodi-0.dtd"
   xmlns:inkscape="http://www.inkscape.org/namespaces/inkscape"
   version="1.1"
   width="500"
   height="500"
   id="svg2"
   inkscape:version="1.0beta2 (2b71d25, 2019-12-03)"
   sodipodi:docname="union.svg">
  <sodipodi:namedview
     pagecolor="#ffffff"
     bordercolor="#666666"
     borderopacity="1"
     objecttolerance="10"
     gridtolerance="10"
     guidetolerance="10"
     inkscape:pageopacity="0"
     inkscape:pageshadow="2"
     inkscape:window-width="1792"
     inkscape:window-height="1026"
     id="namedview3057"
     showgrid="false"
     inkscape:zoom="1.4142136"
     inkscape:cx="159.65288"
     inkscape:cy="230.67209"
     inkscape:window-x="0"
     inkscape:window-y="23"
     inkscape:window-maximized="0"
     inkscape:current-layer="svg2"
     inkscape:document-rotation="0" />
  <defs
     id="defs4">
    <marker
       refX="0"
       refY="0"
       orient="auto"
       id="Arrow1Mend"
       style="overflow:visible">
      <path
         d="M 0,0 5,-5 -12.5,0 5,5 0,0 z"
         transform="matrix(-0.4,0,0,-0.4,-4,0)"
         id="path4046"
         style="fill-rule:evenodd;stroke:#000000;stroke-width:1pt" />
    </marker>
    <marker
       refX="0"
       refY="0"
       orient="auto"
       id="Arrow2Lend"
       style="overflow:visible">
      <path
         d="M 8.7185878,4.0337352 -2.2072895,0.01601326 8.7185884,-4.0017078 c -1.7454984,2.3720609 -1.7354408,5.6174519 -6e-7,8.035443 z"
         transform="matrix(-1.1,0,0,-1.1,-1.1,0)"
         id="path3813"
         style="fill-rule:evenodd;stroke-width:0.625;stroke-linejoin:round" />
    </marker>
    <marker
       refX="0"
       refY="0"
       orient="auto"
       id="Arrow2Lstart"
       style="overflow:visible">
      <path
         d="M 8.7185878,4.0337352 -2.2072895,0.01601326 8.7185884,-4.0017078 c -1.7454984,2.3720609 -1.7354408,5.6174519 -6e-7,8.035443 z"
         transform="matrix(1.1,0,0,1.1,1.1,0)"
         id="path3810"
         style="fill-rule:evenodd;stroke-width:0.625;stroke-linejoin:round" />
    </marker>
  </defs>
  <metadata
     id="metadata7">
    <rdf:RDF>
      <cc:Work
         rdf:about="">
        <dc:format>image/svg+xml</dc:format>
        <dc:type
           rdf:resource="http://purl.org/dc/dcmitype/StillImage" />
        <dc:title />
      </cc:Work>
    </rdf:RDF>
  </metadata>
  <g
     id="g144">
    <ellipse
       ry="115.65691"
       rx="115.65694"
       cy="-259.18109"
       cx="177.37257"
       transform="scale(1,-1)"
       id="path3820"
       style="fill:none;stroke:#000000;stroke-width:68.6862;stroke-miterlimit:4;stroke-dasharray:none;stroke-opacity:1" />
    <ellipse
       style="fill:none;stroke:#000000;stroke-width:68.6861;stroke-miterlimit:4;stroke-dasharray:none;stroke-opacity:1"
       id="path3820-2"
       transform="scale(1,-1)"
       cx="330.94928"
       cy="-260"
       rx="115.65694"
       ry="115.65695" />
  </g>
  <path
     style="fill:#000000;stroke:#000000;stroke-width:0.707107;stroke-opacity:1"
     d="m 252.19034,278.34346 c -2.17477,-9.08436 -2.63166,-22.09299 -1.08819,-30.98365 1.34221,-7.73132 2.51534,-12.02081 3.28758,-12.02081 0.8083,0 2.66847,8.88157 3.54211,16.91221 0.56329,5.17789 0.55902,9.07325 -0.0158,14.36477 -0.71108,6.54643 -2.95235,17.11984 -3.81092,17.9784 -0.18565,0.18566 -1.04732,-2.62726 -1.91482,-6.25092 z"
     id="path146"
     inkscape:connector-curvature="0" />
  <path
     inkscape:connector-curvature="0"
     id="path1237"
     d="m 163.2275,338.90691 c -25.54888,-4.82426 -47.22225,-21.31166 -58.46756,-44.47755 -15.208939,-31.33116 -9.080122,-67.69904 15.56151,-92.34067 17.04272,-17.04272 41.15776,-25.84569 64.20894,-23.43888 6.54217,0.68308 16.16589,2.59389 17.05904,3.3871 0.15838,0.14066 -1.49409,3.68559 -3.67215,7.87761 -11.66656,22.45418 -17.04946,44.60941 -17.04946,70.17321 0,24.28713 4.77695,44.98793 15.33827,66.46804 2.39022,4.86136 4.35541,9.14933 4.36707,9.52883 0.0117,0.3795 -2.36528,1.27751 -5.2821,1.99558 -7.31655,1.8012 -24.54962,2.24554 -32.06356,0.82673 z"
     style="fill:#000000;stroke:#000000;stroke-width:0.707107;stroke-opacity:1" />
  <path
     inkscape:connector-curvature="0"
     id="path1239"
     d="m 318.32764,340.02361 c -3.96216,-0.73148 -11.34689,-2.65873 -11.7563,-3.06813 -0.1679,-0.16791 0.96354,-2.50603 2.51432,-5.19582 7.03428,-12.2008 13.59754,-30.96939 16.40875,-46.92319 1.85215,-10.51112 2.51237,-30.20221 1.37688,-41.06533 -2.13588,-20.43361 -8.69749,-40.71925 -19.6711,-60.8145 -0.37225,-0.68167 8.93981,-2.67952 16.3307,-3.50365 4.93801,-0.55062 9.07942,-0.55989 14.32401,-0.032 20.17125,2.03011 35.5891,9.2565 49.86508,23.3719 10.84856,10.72653 17.59307,22.35957 21.66957,37.37602 1.69451,6.24199 1.85467,7.97653 1.83919,19.91887 -0.0154,11.86772 -0.1894,13.72295 -1.87548,19.99511 -3.75323,13.96186 -11.06638,26.59916 -21.37561,36.93754 -7.27209,7.29265 -13.61185,11.73706 -23.26571,16.31014 -10.79183,5.11214 -18.43195,6.80436 -31.88861,7.06304 -6.22254,0.11962 -12.7456,-0.0469 -14.49569,-0.36995 z"
     style="fill:#000000;stroke:#000000;stroke-width:0.707107;stroke-opacity:1" />
</svg>
